<?xml version="1.0" encoding="UTF-8"?><svg id="a" xmlns="http://www.w3.org/2000/svg" viewBox="0 0 1000 1000"><defs><style>.b,.c,.d{fill:#e30613;}.c{font-size:122.67px;}.c,.d{font-family:HighTowerText-Reg, High Tower Text;}.d{font-size:108.76px;}</style></defs><path class="b" d="M504.66,246.01c2.38,0,4.75,.69,6.8,2.05l203.06,134.17-.16,.24c3.18,1.06,5.9,3.26,7.65,6.29,2.37,4.1,2.52,8.94,.48,13.14l16.34,237.82c.31,4.56-1.9,8.9-5.78,11.32-1.12,.7-2.33,1.21-3.57,1.51,.39,1.28,.58,2.63,.54,4.02-.14,4.55-2.75,8.64-6.82,10.67l-216.86,108.34c-2.61,2.77-6.23,4.36-10.18,4.36-5.08,0-9.62-2.63-12.16-7.02l-.25-.43-214.37-104.87c-4.11-2.01-6.75-6.1-6.91-10.66-.05-1.32,.12-2.62,.47-3.85-1.31-.3-2.57-.81-3.75-1.54-3.87-2.39-6.1-6.7-5.83-11.24l14.66-242.94,.48,.03c-.35-2.95,.24-5.97,1.8-8.66,2.36-4.08,6.44-6.63,11.08-6.98l198.43-133.5c2.08-1.4,4.48-2.11,6.89-2.11,1.99,0,3.98,.48,5.8,1.45,1.17,.62,2.21,1.41,3.09,2.33,.91-.98,1.99-1.82,3.21-2.48,1.83-.99,3.84-1.48,5.85-1.48m-3.82,147.19c.29-1.53,.84-3.03,1.66-4.44,2.54-4.4,7.08-7.02,12.16-7.02h186.9l-193.81-128.06c-.95-.63-2.01-.94-3.08-.94-.91,0-1.82,.23-2.66,.68-1.85,.99-2.95,2.84-2.95,4.94v134.35c.61,.12,1.2,.29,1.78,.49m-207.31-11.46h184.15c5.08,0,9.62,2.62,12.16,7.02,.81,1.41,1.36,2.91,1.66,4.44,.27-.09,.54-.18,.82-.26v-134.41c0-2.11-1.11-3.96-2.97-4.95-.84-.45-1.75-.67-2.64-.67-1.09,0-2.16,.32-3.12,.97l-190.05,127.86m318.73,190.4c2.64,0,5.01-1.37,6.33-3.65l97.6-169.05c1.32-2.29,1.32-5.02,0-7.31-1.32-2.29-3.69-3.65-6.33-3.65h-195.2c-2.64,0-5.01,1.37-6.33,3.65-1.32,2.29-1.32,5.02,0,7.31l97.6,169.05c1.32,2.29,3.69,3.65,6.33,3.65m-232.18,0c2.64,0,5.01-1.37,6.33-3.65l97.6-169.05c1.32-2.29,1.32-5.02,0-7.31-1.32-2.29-3.69-3.65-6.33-3.65h-195.2c-2.64,0-5.01,1.37-6.33,3.65-1.32,2.29-1.32,5.02,0,7.31l97.6,169.05c1.32,2.29,3.69,3.65,6.33,3.65m18.49,10.67h195.2c2.64,0,5.01-1.37,6.33-3.65,1.32-2.29,1.32-5.02,0-7.31l-97.6-169.05c-1.32-2.29-3.69-3.65-6.33-3.65s-5.01,1.37-6.33,3.65l-97.6,169.05c-1.32,2.29-1.32,5.02,0,7.31,1.32,2.29,3.69,3.65,6.33,3.65m-132.88,63.88c.96,0,1.92-.25,2.81-.76l116.39-67.2c-.05-.21-.1-.43-.14-.64-1.47,.51-3.04,.79-4.67,.79-5.08,0-9.62-2.63-12.16-7.02l-93.85-162.55-13.97,231.44c-.13,2.09,.86,4,2.65,5.11,.92,.57,1.93,.85,2.95,.85m346.57-67.82c-1.63,0-3.2-.27-4.67-.79-.02,.08-.03,.17-.05,.25l116.19,67.08c.88,.51,1.85,.77,2.81,.77,1.02,0,2.04-.29,2.97-.86,1.79-1.12,2.77-3.04,2.63-5.14l-15.65-227.76-92.05,159.43c-2.54,4.4-7.09,7.02-12.16,7.02m-99.17,185.81l207.12-103.47c1.88-.94,3.04-2.75,3.1-4.85,.06-2.1-.98-3.98-2.8-5.03l-115.89-66.91c-.52,.64-1.08,1.22-1.69,1.75,1.18,1.02,2.2,2.24,3.02,3.65,2.54,4.4,2.54,9.65,0,14.04l-92.84,160.81m-35.36-2.64l-91.32-158.17c-2.54-4.4-2.54-9.65,0-14.04,.81-1.41,1.84-2.64,3.02-3.65-.51-.44-1-.93-1.45-1.45l-115.96,66.95c-1.83,1.05-2.87,2.94-2.8,5.05,.07,2.11,1.25,3.92,3.14,4.84l205.37,100.47m18.44,11.16c2.64,0,5.01-1.37,6.33-3.65l97.6-169.05c1.32-2.29,1.32-5.02,0-7.31-1.32-2.29-3.69-3.65-6.33-3.65h-195.2c-2.64,0-5.01,1.37-6.33,3.65-1.32,2.29-1.32,5.02,0,7.31l97.6,169.05c1.32,2.29,3.69,3.65,6.33,3.65m8.5-533.2c-3.02,0-6.02,.76-8.69,2.19-.15,.08-.29,.16-.44,.24-.07-.04-.14-.07-.2-.11-2.65-1.41-5.63-2.16-8.63-2.16-3.66,0-7.2,1.08-10.24,3.13l-197.23,132.69c-5.9,.96-11.09,4.52-14.12,9.76-.98,1.69-1.69,3.48-2.14,5.32l-.57-.03-.36,5.99-14.66,242.94c-.41,6.75,2.91,13.15,8.66,16.71,.14,.09,.28,.17,.43,.26,0,.08,0,.15,0,.23,.23,6.79,4.17,12.87,10.27,15.85l212.8,104.1c3.73,5.55,9.84,8.83,16.61,8.83,5.19,0,10.03-1.92,13.73-5.43l215.99-107.91c6.05-3.02,9.93-9.1,10.14-15.86,0-.17,0-.33,0-.5,.07-.04,.13-.08,.2-.12,5.77-3.6,9.06-10.04,8.59-16.82l-16.25-236.37c2.15-5.6,1.68-11.91-1.37-17.18-2.04-3.52-5.05-6.32-8.64-8.05l-.74-.49-203.06-134.17c-3.01-1.99-6.51-3.04-10.11-3.04h0Zm.39,138.14v-119.06l176.54,116.65h-166.94c-3.45,0-6.72,.85-9.6,2.41h0Zm-191.86-2.41l173.12-116.47v118.4c-2.64-1.25-5.57-1.92-8.64-1.92h-164.48Zm299.06,190.4c-.5,0-.88-.22-1.13-.65l-97.6-169.05c-.25-.43-.25-.87,0-1.31,.25-.43,.63-.65,1.13-.65h195.2c.5,0,.88,.22,1.13,.65,.25,.43,.25,.87,0,1.31l-97.6,169.05c-.25,.43-.63,.65-1.13,.65h0Zm-232.18,0c-.5,0-.88-.22-1.13-.65l-97.6-169.05c-.25-.43-.25-.87,0-1.31,.25-.43,.63-.65,1.13-.65h195.2c.5,0,.88,.22,1.13,.65,.25,.43,.25,.87,0,1.31l-97.6,169.05c-.25,.43-.63,.65-1.13,.65h0Zm18.49,10.67c-.5,0-.88-.22-1.13-.65-.25-.43-.25-.87,0-1.31l97.6-169.05c.25-.43,.63-.65,1.13-.65s.88,.22,1.13,.65l97.6,169.05c.25,.43,.25,.87,0,1.31-.25,.43-.63,.65-1.13,.65h-195.2Zm-132.44,63.56l12.72-210.78,83.87,145.26c1.5,2.59,3.48,4.75,5.81,6.4l-102.4,59.12h0Zm358.02-59.37c2.18-1.61,4.05-3.69,5.47-6.15l82.21-142.4,14.25,207.41-101.94-58.85h0Zm-127.98,186.21c-.5,0-.88-.22-1.13-.65l-97.6-169.05c-.25-.43-.25-.87,0-1.31,.25-.43,.63-.65,1.13-.65h195.2c.5,0,.88,.22,1.13,.65,.25,.43,.25,.87,0,1.31l-97.6,169.05c-.25,.43-.63,.65-1.13,.65h0Zm32.1-16.82l82.86-143.52c1.84-3.19,2.75-6.69,2.72-10.19l103.03,59.48-188.6,94.22h0Zm-252.62-93.88l102.84-59.38c.05,3.35,.95,6.69,2.71,9.74l81.49,141.14-187.04-91.5h0Z"/><text class="d" transform="translate(293.05 274.81) rotate(-37.7)"><tspan x="0" y="0">T</tspan></text><text class="d" transform="translate(351.54 228.54) rotate(-22.88)"><tspan x="0" y="0">A</tspan></text><text class="d" transform="translate(423.92 196.98) rotate(-7.1)"><tspan x="0" y="0">V</tspan></text><text class="d" transform="translate(507.58 187.36) rotate(6.99)"><tspan x="0" y="0">E</tspan></text><text class="d" transform="translate(570.8 194.46) rotate(19.73)"><tspan x="0" y="0">R</tspan></text><text class="d" transform="translate(634.83 215.4) rotate(34.77)"><tspan x="0" y="0">N</tspan></text><text class="d" transform="translate(706.41 268.5) rotate(45.65)"><tspan x="0" y="0"> </tspan></text><text class="c" transform="translate(285.66 920.55)"><tspan x="0" y="0">GUIDE</tspan></text></svg>